<svg xmlns="http://www.w3.org/2000/svg" viewBox="0 0 1920 71.5">
  <defs>
    <style>
      .cls-1 {
        fill: #230f67;
      }
    </style>
  </defs>
  <path id="Path_3937" data-name="Path 3937" class="cls-1" d="M1920,71.425,1725.093,40.054c-24.682-3.971-65.028-4-89.948-.056l-31.684,5.025c-24.742,3.924-64.85,3.924-89.592,0L1248.059,2.868c-24.742-3.924-64.85-3.924-89.592,0l-284.2,45.071c-24.742,3.924-64.85,3.924-89.592,0L600.742,18.77c-24.742-3.924-64.85-3.924-89.592,0L426.9,32.131c-24.742,3.924-64.85,3.924-89.592,0h0c-24.742-3.924-64.851-3.924-89.592,0L0,71.425Z" transform="translate(0 0.075)"/>
</svg>
