<?xml version="1.0" encoding="utf-8"?>
<!-- Generator: Adobe Illustrator 22.1.0, SVG Export Plug-In . SVG Version: 6.00 Build 0)  -->
<svg version="1.1" id="Layer_1" xmlns="http://www.w3.org/2000/svg" xmlns:xlink="http://www.w3.org/1999/xlink" x="0px" y="0px"
	 viewBox="0 0 1920 71.5" style="enable-background:new 0 0 1920 71.5;" xml:space="preserve">
<style type="text/css">
	.st0{fill:#394959;}
</style>
<path id="Path_3937" class="st0" d="M1920,71.5l-194.9-31.4c-24.7-4-65-4-89.9-0.1l-31.7,5c-24.7,3.9-64.8,3.9-89.6,0L1248.1,2.9
	c-24.7-3.9-64.8-3.9-89.6,0L874.3,48c-24.7,3.9-64.8,3.9-89.6,0L600.7,18.8c-24.7-3.9-64.8-3.9-89.6,0l-84.2,13.4
	c-24.7,3.9-64.9,3.9-89.6,0l0,0c-24.7-3.9-64.9-3.9-89.6,0L0,71.5H1920z"/>
</svg>
